<svg width="73" height="71" viewBox="0 0 73 71" fill="none" xmlns="http://www.w3.org/2000/svg">
<path d="M7.18576 7.1325L7.18906 7.12925C9.65738 4.71355 12.8465 3.41101 17.5389 2.73808C22.2919 2.05641 28.3236 2.05176 36.3491 2.05176C44.3744 2.05176 50.4066 2.05638 55.1618 2.73658C59.8562 3.40805 63.05 4.70795 65.5252 7.11919C67.9902 9.52681 69.3084 12.6151 69.9915 17.1587C70.6866 21.7808 70.6919 27.6504 70.6919 35.4935C70.6919 43.3367 70.6866 49.2063 69.9915 53.8286C69.3083 58.3727 67.9899 61.4614 65.5241 63.8691C63.0489 66.2861 59.8523 67.5889 55.1562 68.2619C50.3997 68.9437 44.3679 68.9483 36.3491 68.9483C28.3303 68.9483 22.2985 68.9437 17.5437 68.2619C12.8492 67.5889 9.65707 66.2862 7.18906 63.8708L7.1874 63.8691C4.72188 61.4617 3.40327 58.3702 2.71988 53.8239C2.02486 49.2 2.01953 43.3302 2.01953 35.4935C2.01953 27.6569 2.02487 21.7872 2.71987 17.1651C3.40325 12.6202 4.72166 9.53307 7.18576 7.1325Z" stroke="black" stroke-width="2.60081"/>
<path d="M32.124 55.2222V38.4621H26.2559V31.802H32.124V26.5545C32.124 20.8532 35.7656 17.75 41.0828 17.75C43.6305 17.75 45.8186 17.933 46.4536 18.0135V23.971H42.766C39.8741 23.971 39.3156 25.2883 39.3156 27.2132V31.802H45.8416L44.9465 38.4621H39.3156V55.2222" fill="black"/>
</svg>
