<svg width="69" height="69" viewBox="0 0 69 69" fill="none" xmlns="http://www.w3.org/2000/svg">
<g clip-path="url(#clip0_51_316)">
<path fill-rule="evenodd" clip-rule="evenodd" d="M8.90777 8.19996L8.90173 8.20614C6.99571 10.156 5.87522 12.7311 5.27291 16.9374C4.6521 21.2727 4.64295 26.8277 4.64295 34.4937C4.64295 42.1598 4.6521 47.7149 5.27292 52.0519C5.87525 56.2597 6.99605 58.84 8.90475 60.797L8.90777 60.8C10.8095 62.7543 13.3209 63.9032 17.4233 64.5208C21.6516 65.1573 27.0694 65.1667 34.5461 65.1667C42.0228 65.1667 47.4408 65.1573 51.6706 64.5207C55.7744 63.9032 58.291 62.754 60.1997 60.797C62.109 58.8394 63.2294 56.2615 63.8316 52.0564C64.4524 47.7212 64.4615 42.1662 64.4615 34.4937C64.4615 26.8212 64.4524 21.2664 63.8316 16.9311C63.2295 12.727 62.1096 10.1495 60.2012 8.19205C58.2924 6.24022 55.778 5.09392 51.6762 4.47785C47.4472 3.84267 42.0289 3.83333 34.5461 3.83333C27.0631 3.83333 21.6455 3.84272 17.4189 4.4792C13.3191 5.0966 10.81 6.24507 8.90777 8.19996ZM62.8433 5.47996C68.2001 10.9724 68.2001 19.3675 68.2001 34.4937C68.2001 49.6199 68.2001 58.015 62.8433 63.5074C57.4864 69 49.2865 69 34.5461 69C19.8057 69 11.6057 69 6.26112 63.5074C0.904297 58.015 0.904297 49.6075 0.904297 34.4937C0.904297 19.3801 0.904297 10.9724 6.26112 5.49248C11.6057 0 19.7935 0 34.5461 0C49.2987 0 57.4864 0 62.8433 5.47996Z" fill="black"/>
<path fill-rule="evenodd" clip-rule="evenodd" d="M34.5523 46C40.7467 46 45.7684 40.8512 45.7684 34.5C45.7684 28.1488 40.7467 23 34.5523 23C28.3579 23 23.3363 28.1488 23.3363 34.5C23.3363 40.8512 28.3579 46 34.5523 46ZM34.5523 49.8334C42.8116 49.8334 49.507 42.9683 49.507 34.5C49.507 26.0317 42.8116 19.1667 34.5523 19.1667C26.2931 19.1667 19.5977 26.0317 19.5977 34.5C19.5977 42.9683 26.2931 49.8334 34.5523 49.8334Z" fill="black"/>
<path d="M50.4409 21.0833C53.0219 21.0833 55.1142 18.938 55.1142 16.2917C55.1142 13.6453 53.0219 11.5 50.4409 11.5C47.8599 11.5 45.7676 13.6453 45.7676 16.2917C45.7676 18.938 47.8599 21.0833 50.4409 21.0833Z" fill="black"/>
</g>
<defs>
<clipPath id="clip0_51_316">
<rect width="69" height="69" fill="white"/>
</clipPath>
</defs>
</svg>
