<svg width="71" height="69" viewBox="0 0 71 69" fill="none" xmlns="http://www.w3.org/2000/svg">
<g clip-path="url(#clip0_51_313)">
<path d="M6.79104 6.6026L6.79363 6.60008C9.28068 4.17757 12.4727 2.89636 17.0845 2.23809C21.7511 1.57202 27.6648 1.56818 35.4932 1.56818C43.3214 1.56818 49.2356 1.57199 53.9041 2.23661C58.5174 2.89337 61.7135 4.1717 64.2069 6.58884C66.7008 9.01245 68.0193 12.1186 68.6967 16.602C69.3821 21.1388 69.386 26.8858 69.386 34.4937C69.386 42.1016 69.3821 47.8488 68.6967 52.3854C68.0193 56.8689 66.7008 59.975 64.2069 62.3986C61.7133 64.8221 58.5143 66.1036 53.8988 66.7619C49.229 67.4281 43.3151 67.4318 35.4932 67.4318C27.6712 67.4318 21.7574 67.4281 17.0893 66.7619C12.4755 66.1036 9.28043 64.8222 6.79363 62.4L6.79233 62.3986C4.29871 59.9753 2.98006 56.8663 2.30264 52.3809C1.61722 47.8426 1.61328 42.0953 1.61328 34.4937C1.61328 26.8921 1.61722 21.1449 2.30263 16.6083C2.98005 12.1244 4.29857 9.01935 6.79104 6.6026Z" stroke="black" stroke-width="3"/>
<path d="M53.1368 20.2162L47.1844 47.8664C46.7353 49.818 45.5641 50.3037 43.9 49.3842L34.8304 42.8013L30.4542 46.9471C29.9698 47.4242 29.5648 47.8231 28.6314 47.8231L29.283 38.7248L46.0924 23.7636C46.8233 23.1217 45.934 22.7662 44.9566 23.4081L24.1759 36.2963L15.2297 33.5384C13.2837 32.9398 13.2485 31.6216 15.6348 30.7022L50.6272 17.4234C52.2473 16.825 53.6651 17.7791 53.1368 20.2162Z" fill="black"/>
</g>
<defs>
<clipPath id="clip0_51_313">
<rect width="71" height="69" fill="white"/>
</clipPath>
</defs>
</svg>
